<?xml version="1.0" encoding="utf-8"?>
<svg xmlns="http://www.w3.org/2000/svg" width="440" height="269" viewBox="0 0 440 269" fill="none">
<g clip-path="url(#clip0_12319_52675)">
<path d="M0 12C0 5.37 5.37 0 12 0H428C434.63 0 440 5.37 440 12V257C440 263.63 434.63 269 428 269H12C5.37 269 0 263.63 0 257V12Z" fill="url(#paint0_linear_12319_52675)"/>
<path d="M420 12H20C15.5817 12 12 15.5817 12 20V249C12 253.418 15.5817 257 20 257H420C424.418 257 428 253.418 428 249V20C428 15.5817 424.418 12 420 12Z" fill="#0F212E"/>
<path fill-rule="evenodd" clip-rule="evenodd" d="M256.45 12H161.66C160.7 19.41 158.41 26.48 154.59 33.18C120.4 92.7 63.33 107.32 12 104.51V174.86C104.13 187.95 194.95 164.07 244.99 76.26C256.3 56.4 259.29 34.77 256.46 12H256.45ZM428 204.13V248.42C387.03 251.75 345.84 243.66 309.06 224.93C259.59 196.73 264.71 160.36 279.17 135.19C295.88 105.82 354.47 42.13 382.85 11.99H421C424.87 11.99 428 15.12 428 18.99V90.82C401.3 118.74 375.55 146.77 369.8 156.8C362.43 169.63 359.41 188.41 374.68 197.18C384.87 203.03 406.2 204.41 428 204.12V204.13Z" fill="url(#paint1_linear_12319_52675)"/>
<path d="M36.02 40.9099C36.02 36.7599 38.65 34.4599 43.52 34.4499C47.02 34.4499 47.65 36.7299 47.65 37.5599C47.65 39.1599 45.39 40.8499 45.39 40.8499C45.39 40.8499 45.52 41.8399 47.46 41.8299C49.39 41.8299 51.29 40.5499 51.27 37.3499C51.27 33.6799 47.39 31.9899 43.6 32.0099C40.42 32.0099 32 32.4699 32 40.8599C32 48.3199 46.08 48.9799 46.1 53.7599C46.1 58.9399 40.31 60.3399 38.33 60.3499C36.36 60.3499 35.56 58.9499 35.56 58.1799C35.56 53.9899 39.72 52.8099 39.72 52.8099C39.72 52.5799 39.66 52.3399 39.56 52.1299C39.46 51.9199 39.32 51.7299 39.15 51.5699C38.98 51.4099 38.77 51.2899 38.55 51.2099C38.33 51.1299 38.09 51.0999 37.86 51.1099C33.71 51.1099 32.05 54.6999 32.07 58.1899C32.07 61.1599 34.18 63.0199 37.36 63.0099C43.43 63.0099 50.27 60.0199 50.25 53.4399C50.23 47.2899 36.05 45.6799 36.04 40.9199L36.02 40.9099ZM93.89 57.3999C93.84 57.2799 93.71 57.3099 93.53 57.4599C92.74 58.1999 91.8 58.7799 90.78 59.1599C89.76 59.5399 88.67 59.6999 87.58 59.6499C80.86 59.6499 79.7 48.5999 79.7 48.5999C79.7 48.5999 84.83 44.7699 85.6 43.2299C86.38 41.6899 83.88 41.3199 83.88 41.3199C83.88 41.3199 80.3 45.6899 77.76 46.9699C78.03 45.0699 79.9 40.7599 80.02 38.2599C80.14 35.7699 77.06 36.3999 76.53 36.6599C76.53 37.7499 73.8 47.5999 72.79 53.0099C72.21 53.9499 71.37 55.0299 70.62 55.0299C70.19 55.0299 70.02 54.2499 70.02 53.0599C70.02 51.4599 70.9 48.8899 70.9 47.3299C70.9 46.2499 70.4 46.1799 69.98 46.1899H69.3C68.2 46.1899 68.56 45.2599 67.58 45.2699C64.57 45.2699 60.72 48.5699 60.59 53.5499C59.57 54.2299 58.15 55.0999 57.42 55.0999C56.69 55.0999 56.41 54.3599 56.41 53.7499C56.41 52.6799 58.14 46.3099 58.14 46.3099C58.14 46.3099 60.35 45.7399 61.32 45.5299C62.05 45.3799 62.25 45.3299 62.54 44.9799C62.83 44.6299 63.38 43.8999 63.82 43.2499C64.26 42.5999 63.82 42.0799 63.04 42.0899C61.69 42.2199 60.36 42.4499 59.05 42.7699C59.05 42.7699 60.41 36.7699 60.4 36.6599C60.4 36.5399 60.24 36.4699 60.01 36.4699C59.3 36.5399 58.6 36.7099 57.93 36.9699C57.51 37.1699 57.13 37.4499 56.81 37.7899C56.5 38.1399 56.25 38.5399 56.1 38.9799C55.94 39.5099 54.9 43.6399 54.9 43.6399C54.9 43.6399 49.3 45.5699 48.53 45.8699C48.51 45.8699 48.49 45.8899 48.47 45.9099C48.46 45.9299 48.45 45.9499 48.45 45.9799C48.45 46.0299 49.09 48.4799 50.4 48.4699C51.35 48.4699 54.11 47.3399 54.11 47.3399C54.11 47.3399 52.7 52.9599 52.7 54.8299C52.7 56.0299 53.27 57.4499 55.63 57.4399C57.51 57.3399 59.32 56.6799 60.81 55.5199C61.05 56.0999 61.45 56.5899 61.97 56.9199C62.49 57.2599 63.11 57.4299 63.73 57.3999C65.25 57.2799 66.66 56.5999 67.7 55.4799C67.86 55.9999 68.17 56.4599 68.59 56.7999C69.01 57.1399 69.53 57.3399 70.07 57.3799C70.91 57.3799 71.78 56.4299 72.4 55.5299C72.39 55.7199 72.39 55.9099 72.4 56.0999C72.66 58.4299 76.13 57.0599 76.28 56.7399C76.4 55.0499 76.28 51.5899 76.99 49.4599C77.88 56.7399 81.29 61.6299 87.39 61.6099C90.8 61.6099 92.55 60.6199 93.28 59.8099C93.59 59.4999 93.81 59.1099 93.91 58.6799C94.02 58.2499 94.01 57.8099 93.89 57.3899V57.3999ZM64.62 54.9999C61.69 54.9999 65.52 47.4099 68.02 47.3999C67.99 48.3799 67.93 54.9899 64.62 54.9999ZM88.4 57.3299C89.36 57.3099 90.31 57.0899 91.18 56.6899C92.05 56.2899 92.83 55.7099 93.47 54.9999C93.95 54.2599 92.9 53.1399 92.57 53.1699C92.13 53.7199 91.57 54.1599 90.94 54.4699C90.31 54.7799 89.61 54.9399 88.91 54.9399C86.58 54.9399 87.12 52.4099 87.12 52.4099C87.12 52.4099 91.56 52.9799 93.33 49.7899C93.82 48.8599 93.95 47.7799 93.71 46.7599C93.47 46.1499 92.16 45.0299 90.13 45.2099C87.6 45.4299 84.42 48.0599 83.72 51.2199C83.15 53.7499 84.22 57.3499 88.4 57.3299ZM91.22 46.6699C91.64 46.6699 91.6 47.3499 91.49 48.0599C91.33 49.0299 89.99 51.4999 87.44 51.4099C87.62 49.9699 89.51 46.7699 91.22 46.6699Z" fill="white"/>
<path d="M420 257H20C15.59 257 12 253.41 12 249V20C12 15.59 15.59 12 20 12H420C424.41 12 428 15.59 428 20V249C428 253.41 424.41 257 420 257ZM20 14C16.69 14 14 16.69 14 20V249C14 252.31 16.69 255 20 255H420C423.31 255 426 252.31 426 249V20C426 16.69 423.31 14 420 14H20Z" fill="#EAC749"/>
<path d="M313.61 40.1399V32.1399H317.12C318.8 32.1399 319.73 33.2899 319.73 34.6499C319.73 36.0099 318.78 37.1599 317.12 37.1599H315.01V40.1499H313.61V40.1399ZM318.3 34.6399C318.3 33.8699 317.72 33.3699 316.93 33.3699H315.01V35.9099H316.93C317.72 35.9099 318.3 35.4099 318.3 34.6399Z" fill="white"/>
<path d="M326.51 40.1399L325.92 38.5999H322.25L321.66 40.1399H320.07L323.21 32.1399H324.96L328.1 40.1399H326.51ZM324.08 33.5499L322.64 37.3599H325.52L324.08 33.5499Z" fill="white"/>
<path d="M331.371 40.1399V36.8199L328.261 32.1399H329.871L332.081 35.5699L334.261 32.1399H335.871L332.781 36.8199V40.1399H331.381H331.371Z" fill="white"/>
<path d="M343.9 40.1399V36.8199L340.79 32.1399H342.4L344.61 35.5699L346.79 32.1399H348.4L345.31 36.8199V40.1399H343.91H343.9Z" fill="white"/>
<path d="M349.33 36.14C349.33 33.75 351.02 32 353.42 32C355.82 32 357.51 33.75 357.51 36.14C357.51 38.53 355.82 40.28 353.42 40.28C351.02 40.28 349.33 38.53 349.33 36.14ZM356.07 36.14C356.07 34.48 355.03 33.25 353.42 33.25C351.81 33.25 350.77 34.49 350.77 36.14C350.77 37.79 351.8 39.03 353.42 39.03C355.04 39.03 356.07 37.78 356.07 36.14Z" fill="white"/>
<path d="M359.771 36.9799V32.1299H361.191V36.9299C361.191 38.1999 361.901 39.0299 363.241 39.0299C364.581 39.0299 365.281 38.1999 365.281 36.9299V32.1299H366.701V36.9599C366.701 38.9499 365.561 40.2699 363.251 40.2699C360.941 40.2699 359.781 38.9399 359.781 36.9699L359.771 36.9799Z" fill="white"/>
<path d="M373.871 40.1399L372.091 37.1499H370.701V40.1399H369.301V32.1399H372.811C374.391 32.1399 375.421 33.1699 375.421 34.6499C375.421 36.1299 374.491 36.8399 373.531 36.9999L375.491 40.1399H373.871ZM373.991 34.6399C373.991 33.8699 373.411 33.3699 372.621 33.3699H370.701V35.9099H372.621C373.411 35.9099 373.991 35.4099 373.991 34.6399Z" fill="white"/>
<path d="M387.84 40.1399L386.28 34.2399L384.73 40.1399H383.23L380.94 32.1399H382.51L384.07 38.2999L385.73 32.1399H386.85L388.51 38.2999L390.06 32.1399H391.63L389.35 40.1399H387.85H387.84Z" fill="white"/>
<path d="M398.52 40.1399L397.93 38.5999H394.26L393.67 40.1399H392.08L395.22 32.1399H396.97L400.11 40.1399H398.52ZM396.1 33.5499L394.66 37.3599H397.54L396.1 33.5499Z" fill="white"/>
<path d="M403.381 40.1399V36.8199L400.271 32.1399H401.881L404.091 35.5699L406.271 32.1399H407.881L404.791 36.8199V40.1399H403.391H403.381Z" fill="white"/>
<path d="M32.8496 235V227H34.2496V235H32.8496Z" fill="white"/>
<path d="M42.4391 235L38.2691 229.29V235H36.8691V227H38.3091L42.3991 232.55V227H43.7991V235H42.4491H42.4391Z" fill="white"/>
<path d="M50.9692 235L49.1992 232.01H47.8092V235H46.4092V227H49.9192C51.4992 227 52.5292 228.03 52.5292 229.51C52.5292 230.99 51.5892 231.7 50.6292 231.86L52.5892 235H50.9692ZM51.0892 229.51C51.0892 228.74 50.5092 228.24 49.7192 228.24H47.7992V230.78H49.7192C50.5092 230.78 51.0892 230.28 51.0892 229.51Z" fill="white"/>
<mask id="mask0_12319_52675" style="mask-type:luminance" maskUnits="userSpaceOnUse" x="140" y="55" width="160" height="160">
<path d="M300 55H140V215H300V55Z" fill="white"/>
</mask>
<g mask="url(#mask0_12319_52675)">
<path d="M220 215C264.18 215 300 179.18 300 135C300 90.82 264.18 55 220 55C175.82 55 140 90.82 140 135C140 179.18 175.82 215 220 215Z" fill="#EAC749"/>
<path d="M250 103.67H230.6C234.4 106.74 237 110.8 238.07 115.54H249.94V125.21H238.27C236.67 136.48 228.47 142.88 220.6 144.68L239.13 175.81H219L202.93 146.74H189.8V132.74H208.53C214.53 132.74 218.93 129.81 220.66 125.14H189.99V115.47H220.99C219.26 110.67 214.86 108 208.72 108H189.99V94H250.06V103.53L249.99 103.66L250 103.67Z" fill="#276304"/>
</g>
<path d="M371.07 209H394.07C401.8 209 408.07 215.27 408.07 223C408.07 230.73 401.8 237 394.07 237H371.07C363.34 237 357.07 230.73 357.07 223C357.07 215.27 363.34 209 371.07 209Z" fill="white"/>
<path d="M369.971 227V219H375.451V220.24H371.371V222.31H375.361V223.55H371.371V227H369.971Z" fill="#071824"/>
<path d="M377.621 227V219H379.021V227H377.621Z" fill="#071824"/>
<path d="M387.231 227L386.641 225.46H382.971L382.381 227H380.791L383.931 219H385.681L388.821 227H387.231ZM384.801 220.42L383.361 224.23H386.241L384.801 220.42Z" fill="#071824"/>
<path d="M391.731 227V220.24H389.311V219H395.561V220.24H393.141V227H391.741H391.731Z" fill="#071824"/>
</g>
<rect x="0.75" y="0.75" width="438.5" height="267.5" rx="11.25" stroke="url(#paint2_linear_12319_52675)" stroke-opacity="0.1" stroke-width="1.5"/>
<defs>
<linearGradient id="paint0_linear_12319_52675" x1="220" y1="0" x2="220" y2="269" gradientUnits="userSpaceOnUse">
<stop stop-color="#213743"/>
<stop offset="1" stop-color="#1A2C38"/>
</linearGradient>
<linearGradient id="paint1_linear_12319_52675" x1="220" y1="12" x2="220" y2="207" gradientUnits="userSpaceOnUse">
<stop stop-color="#EAC749"/>
<stop offset="1" stop-color="#0F212E"/>
</linearGradient>
<linearGradient id="paint2_linear_12319_52675" x1="220" y1="0" x2="220" y2="269" gradientUnits="userSpaceOnUse">
<stop stop-color="white"/>
<stop offset="1" stop-color="white" stop-opacity="0"/>
</linearGradient>
<clipPath id="clip0_12319_52675">
<rect width="440" height="269" rx="12" fill="white"/>
</clipPath>
</defs>
</svg>