<svg fill="currentColor" viewBox="0 0 96 96" class="svg-icon w-6 md:w-4 h-auto text-white" style=""> <title>Instagram</title> <path fill-rule="evenodd" clip-rule="evenodd" d="M71.586.1H24.414A24.414 24.414 0 0 0 0 24.515v47.173A24.212 24.212 0 0 0 24.414 95.9h47.172A24.209 24.209 0 0 0 96 71.687V24.514A24.414 24.414 0 0 0 71.586.101Zm14.487 72.03a13.883 13.883 0 0 1-13.841 14.044H23.808A13.88 13.88 0 0 1 9.927 72.13V23.707a13.881 13.881 0 0 1 13.881-13.68h48.424A13.882 13.882 0 0 1 86.114 23.91l-.04 48.222ZM72.396 28.995a4.802 4.802 0 1 0 0-9.604 4.802 4.802 0 0 0 0 9.604Zm-37.543-.54a23.647 23.647 0 0 1 13.17-3.98A23.607 23.607 0 0 1 71.629 47.92a23.647 23.647 0 1 1-36.776-19.465Zm5.105 31.736A14.529 14.529 0 0 0 62.509 47.92a14.527 14.527 0 1 0-22.551 12.27Z"></path></svg>