<svg fill="currentColor" viewBox="0 0 96 96" class="svg-icon w-6 md:w-4 h-auto text-white" style=""> <title>Primedice</title> <path fill-rule="evenodd" clip-rule="evenodd" d="m70.88 37.68-21-20.88a2.776 2.776 0 0 0-3.92 0l-21 20.88c-1.08 1.08-1.08 2.88 0 4l20.88 21c1.08 1.12 3.12 1.12 4.2 0l20.88-21c1.08-1.08 1.08-2.88 0-4h-.04Zm-35.44 5.48c-1.88 0-3.4-1.56-3.4-3.4 0-1.84 1.56-3.4 3.4-3.4 1.84 0 3.4 1.56 3.4 3.4 0 1.84-1.56 3.4-3.4 3.4Zm12.48 12.48c-1.88 0-3.4-1.56-3.4-3.4 0-1.84 1.56-3.4 3.4-3.4 1.84 0 3.4 1.56 3.4 3.4 0 1.84-1.56 3.4-3.4 3.4Zm0-12.48c-1.88 0-3.4-1.56-3.4-3.4 0-1.84 1.56-3.4 3.4-3.4 1.84 0 3.4 1.56 3.4 3.4 0 1.84-1.56 3.4-3.4 3.4Zm0-12.44c-1.88 0-3.4-1.56-3.4-3.4 0-1.84 1.56-3.4 3.4-3.4 1.84 0 3.4 1.56 3.4 3.4 0 1.84-1.56 3.4-3.4 3.4Zm12.44 12.44c-1.88 0-3.4-1.56-3.4-3.4 0-1.84 1.56-3.4 3.4-3.4 1.84 0 3.4 1.56 3.4 3.4 0 1.84-1.56 3.4-3.4 3.4Zm-49.08 20.4 23.48-.08c.48 0 .88-.2 1.2-.48.2-.2.4-.44.48-.72.12-.28.2-.56.2-.88 0-.48-.16-.96-.52-1.32l-33-31.6c-.36-.4-.84-.56-1.28-.56-.48 0-.96.16-1.32.52-.24.24-.4.48-.48.72-.08.28-.08.68 0 1.04l9.36 32c.2 1.04.96 1.36 1.92 1.36h-.04Zm73.44 0-23.48-.08c-.48 0-.88-.2-1.2-.48-.2-.2-.4-.44-.48-.72-.12-.28-.2-.56-.2-.88 0-.48.16-.96.52-1.32l32.96-31.6c.36-.4.84-.56 1.28-.56.48 0 .96.16 1.32.52.24.24.4.48.48.72.08.28.08.68 0 1.04l-9.36 32c-.2 1.04-.96 1.36-1.92 1.36h.08Z"></path><path d="M11.04 68.44h73.88c.76 0 1.4.64 1.4 1.4v4.8c0 .76-.64 1.4-1.4 1.4H11.04c-.76 0-1.4-.64-1.4-1.4v-4.8c0-.76.64-1.4 1.4-1.4Z"></path></svg>