<svg width="1860" height="631" viewBox="0 0 1860 631" fill="none" xmlns="http://www.w3.org/2000/svg">
<rect width="1860" height="631" fill="#071D2A"/>
<path fill-rule="evenodd" clip-rule="evenodd" d="M872.588 -78.5656C878.526 -149.644 926.949 -185.272 1010.45 -178.565C1070.49 -173.549 1078 -133.515 1076.82 -119.406C1074.53 -91.9863 1033.37 -66.206 1033.37 -66.206C1033.37 -66.206 1034.22 -49.1126 1067.38 -46.4763C1100.54 -43.84 1134.85 -62.9554 1139.16 -117.817C1144.42 -180.775 1080.27 -215.22 1015.28 -220.382C960.695 -224.942 815.724 -229.145 803.714 -85.3917C797.777 -14.3291 869.346 26.929 933.007 63.6284C983.937 92.9884 1029.81 119.431 1026.88 155.882C1019.46 244.663 918.144 260.325 884.318 257.633C850.491 254.941 838.791 229.703 839.903 216.393C845.907 144.516 918.946 130.379 918.946 130.379C919.128 126.345 918.507 122.314 917.117 118.522C915.727 114.73 913.597 111.252 910.85 108.291C908.103 105.33 904.795 102.945 901.117 101.274C897.44 99.6035 893.467 98.6807 889.429 98.5597C818.336 92.6204 784.709 151.735 779.971 211.654C775.712 262.633 809.266 297.471 863.729 301.886C967.705 310.573 1089.28 269.126 1098.3 156.353C1102.77 100.258 1036.76 60.462 974.977 23.2128C920.614 -9.56203 869.522 -40.3653 872.588 -78.5656ZM1840.82 286.852C1840.19 284.789 1837.88 285.132 1834.47 287.394C1819.79 299.022 1802.92 307.581 1784.86 312.566C1766.8 317.55 1747.93 318.857 1729.36 316.41C1614.2 306.79 1610.05 115.713 1610.05 115.713C1610.05 115.713 1703.4 57.4331 1718.92 32.1905C1734.43 6.94798 1692.1 -3.02238 1692.1 -3.02238C1692.1 -3.02238 1624.47 66.6552 1579.1 84.9805C1582.14 71.7444 1590.44 51.8318 1599.53 30.0159L1599.53 30.0155L1599.53 30.0146C1612.48 -1.05702 1627.04 -35.9896 1630.31 -60.9934C1635.88 -103.553 1582.24 -97.043 1572.82 -93.4068C1572.09 -84.6082 1558.11 -43.2094 1540.93 7.65741L1540.93 7.65857C1521.73 64.5221 1498.54 133.217 1485.38 181.429C1474.05 196.701 1458.13 214.001 1445.21 212.922C1437.76 212.299 1436.07 198.755 1437.77 178.39C1438.93 164.596 1444.24 146.91 1449.52 129.332L1449.52 129.331C1454.73 111.968 1459.91 94.7105 1461.02 81.4156C1462.57 62.914 1454.15 61.0043 1446.82 60.5257L1435.1 59.5469C1425.48 58.7434 1422.75 54.2931 1420.1 49.9717C1417.57 45.8586 1415.12 41.8622 1406.87 41.2383C1355.21 36.9229 1284.59 87.987 1275.2 173.118C1256.79 183.241 1231.17 196.247 1218.65 195.201C1206.14 194.156 1202.4 181.11 1203.28 170.595C1204.82 152.227 1243.62 45.5609 1243.62 45.5609C1243.62 45.5609 1282.24 39.0029 1299.19 36.7994C1311.91 35.3159 1315.45 34.6733 1320.88 29.0951C1326.3 23.5169 1336.8 11.7947 1345.32 1.24791C1353.85 -9.29894 1346.99 -18.7178 1333.67 -19.6969C1310.42 -19.3367 1287.22 -17.3329 1264.26 -13.7005C1264.26 -13.7005 1296.14 -114.511 1296.17 -116.519C1296.21 -118.526 1293.65 -119.947 1289.78 -120.269C1277.45 -120.03 1265.2 -118.123 1253.38 -114.598C1245.84 -111.826 1238.92 -107.583 1233.04 -102.115C1227.15 -96.6478 1222.4 -90.0648 1219.08 -82.749C1215.66 -73.9203 1191.91 -4.5989 1191.91 -4.5989C1191.91 -4.5989 1093.15 20.5251 1079.55 24.482C1079.15 24.5863 1078.79 24.8103 1078.53 25.1238C1078.26 25.4372 1078.1 25.8249 1078.06 26.2342C1077.99 27.0329 1085.53 70.0171 1107.91 71.7525C1124.15 73.1094 1173.03 57.7577 1173.03 57.7577C1173.03 57.7577 1140.76 151.968 1138.21 184.058C1136.49 204.689 1144.18 229.726 1184.66 232.974C1217.06 234.043 1249.01 225.158 1276.21 207.515C1279.41 217.719 1285.67 226.693 1294.14 233.225C1302.61 239.758 1312.88 243.533 1323.57 244.042C1349.74 244.212 1375.02 234.5 1394.34 216.848C1396.3 225.976 1400.98 234.294 1407.77 240.701C1414.56 247.109 1423.14 251.303 1432.37 252.729C1446.75 253.931 1463.01 238.937 1474.95 224.387C1474.47 227.605 1474.2 230.851 1474.14 234.104C1475.2 274.402 1536.67 255.947 1539.8 250.579C1540.88 243.502 1541.88 234.586 1542.99 224.637L1542.99 224.635L1542.99 224.634C1546.41 194.025 1550.92 153.634 1562.46 126.883C1567.36 252.882 1618.66 341.609 1723.34 349.952C1781.78 354.835 1813.16 340.3 1826.83 327.502C1832.55 322.566 1836.85 316.204 1839.31 309.063C1841.77 301.923 1842.29 294.259 1840.82 286.852ZM1342.61 203.814C1292.42 199.621 1368.92 75.0612 1411.8 78.5094C1411.73 79.1056 1411.65 79.8244 1411.56 80.656L1411.55 80.6862C1409.05 103.25 1397.42 208.264 1342.61 203.814ZM1795.33 270.882C1779.8 276.503 1763.28 278.864 1746.79 277.817C1675.15 272.1 1662.06 208.949 1675.4 166.368C1691.91 113.196 1750.26 72.6332 1793.84 72.521C1828.84 72.3625 1849.74 93.4092 1852.99 104.269C1855.7 122.141 1851.84 140.388 1842.13 155.635C1807.21 207.805 1731.88 191.594 1731.88 191.594C1731.88 191.594 1718.93 234.207 1758.87 237.544C1770.95 238.463 1783.08 236.687 1794.38 232.347C1805.69 228.006 1815.89 221.209 1824.25 212.446C1830 212.525 1846.38 233.193 1837.07 245.149C1825.07 256.501 1810.86 265.261 1795.33 270.882ZM1813.06 123.317C1815.94 111.227 1817.58 99.7024 1810.39 99.1018C1781.1 98.2633 1744.02 150.522 1738.9 174.89C1782.44 180.136 1809 139.733 1813.06 123.317Z" fill="url(#paint0_linear_12717_126670)" fill-opacity="0.6"/>
<defs>
<linearGradient id="paint0_linear_12717_126670" x1="1392.77" y1="26.1367" x2="1372" y2="374" gradientUnits="userSpaceOnUse">
<stop stop-color="#182833"/>
<stop offset="1" stop-color="#071824"/>
</linearGradient>
</defs>
</svg>

